<svg data-v-fde0c5aa="" xmlns="http://www.w3.org/2000/svg" viewBox="0 0 300 300" class="font"><!----><defs data-v-fde0c5aa=""><!----></defs><rect data-v-fde0c5aa="" fill="#EDE9E4" x="0" y="0" width="300px" height="300px" class="logo-background-square"></rect><defs data-v-fde0c5aa=""><!----></defs><g data-v-fde0c5aa="" id="d461a961-4647-49be-9da2-d9a149cf7a98" fill="#14A9A9" transform="matrix(4.950495202485837,0,0,4.950495202485837,39.65346529746655,109.80198070264426)"><path d="M4.89 5.68L7.60 5.68L7.60 3.78L0.07 3.78L0.07 5.68L2.79 5.68L2.79 13.30L4.89 13.30ZM14.83 9.80C14.83 8.12 14.15 6.99 12.50 6.99C11.69 6.99 11.03 7.35 10.61 7.88L10.61 2.80L8.51 2.80L8.51 13.30L10.61 13.30L10.61 10.22C10.61 9.38 11.13 8.68 11.79 8.68C12.45 8.68 12.73 9.07 12.73 9.80L12.73 13.30L14.83 13.30ZM18.20 9.48C18.20 9.48 18.27 8.33 19.59 8.33C20.86 8.33 20.96 9.48 20.96 9.48ZM22.97 10.08C22.97 8.11 21.42 6.99 19.54 6.99C17.47 6.99 15.95 8.29 15.95 10.22C15.95 12.18 17.42 13.44 19.54 13.44C21.18 13.44 22.50 12.63 22.86 11.00L20.72 11.00C20.71 11.45 20.24 11.94 19.50 11.94C18.68 11.94 18.17 11.19 18.17 10.47L22.96 10.47C22.96 10.35 22.97 10.21 22.97 10.08ZM36.54 3.78L34.27 3.78L32.30 9.13L31.78 10.63L31.26 9.13L29.30 3.78L27.03 3.78L30.88 13.30L32.69 13.30ZM40.95 9.66L38.54 9.66L39.75 6.27ZM44.51 13.30L40.64 3.78L38.86 3.78L35 13.30L37.25 13.30L37.94 11.38L41.57 11.38L42.25 13.30Z"></path></g><!----><!----></svg>